<svg xmlns="http://www.w3.org/2000/svg" width="200" height="200" viewBox="0 0 200 200">
  <defs>
    <pattern id="africanPattern" width="50" height="50" patternUnits="userSpaceOnUse">
      <rect width="50" height="50" fill="none"/>
      <path d="M10,0 L10,10 L0,10" stroke="#8B5A2B" stroke-width="1" fill="none"/>
      <path d="M20,0 L20,20 L0,20" stroke="#8B5A2B" stroke-width="1" fill="none"/>
      <path d="M30,0 L30,30 L0,30" stroke="#8B5A2B" stroke-width="1" fill="none"/>
      <path d="M40,0 L40,40 L0,40" stroke="#8B5A2B" stroke-width="1" fill="none"/>
      <path d="M50,10 L40,10 L40,0" stroke="#8B5A2B" stroke-width="1" fill="none"/>
      <path d="M50,20 L30,20 L30,0" stroke="#8B5A2B" stroke-width="1" fill="none"/>
      <path d="M50,30 L20,30 L20,0" stroke="#8B5A2B" stroke-width="1" fill="none"/>
      <path d="M50,40 L10,40 L10,0" stroke="#8B5A2B" stroke-width="1" fill="none"/>
      <circle cx="10" cy="10" r="2" fill="#CD853F"/>
      <circle cx="20" cy="20" r="2" fill="#CD853F"/>
      <circle cx="30" cy="30" r="2" fill="#CD853F"/>
      <circle cx="40" cy="40" r="2" fill="#CD853F"/>
      <path d="M0,0 L50,50" stroke="#D2B48C" stroke-width="0.5" stroke-dasharray="2,3" fill="none"/>
      <path d="M50,0 L0,50" stroke="#D2B48C" stroke-width="0.5" stroke-dasharray="2,3" fill="none"/>
    </pattern>
  </defs>
  <rect width="200" height="200" fill="url(#africanPattern)"/>
</svg>
